{"title":"The Following S02E01 HDTV x264 AAC [GWC].mp4","uid":9500143,"size":122135173,"categoryP":"video","categoryS":"tv_shows","magnet":"?xt=urn:btih:b60585c746369e30f3e3b78edf6fd5bef5034608&amp;dn=The+Following+S02E01+HDTV+x264+AAC+%5BGWC%5D.mp4&amp;tr=udp%3A%2F%2Ftracker.openbittorrent.com%3A80&amp;tr=udp%3A%2F%2Fopen.demonii.com%3A1337&amp;tr=udp%3A%2F%2Ftracker.coppersurfer.tk%3A6969&amp;tr=udp%3A%2F%2Fexodus.desync.com%3A6969","seeders":1,"leechers":0,"uploader":"canc232","files":1,"time":1390206608,"description":"The Following S02E01 HDTV x264 AAC [GWC]\n\n\nSCREENS : &lt;a href=&quot;\nhttp://imageshack.com/a/img534/9195/lghm.jpg&quot; rel=&quot;nofollow&quot; target=&quot;_NEW&quot;&gt;\nhttp://imageshack.com/a/img534/9195/lghm.jpg&lt;/a&gt; &lt;a href=&quot;\nhttp://imageshack.com/a/img703/5312/x9l1.jpg&quot; rel=&quot;nofollow&quot; target=&quot;_NEW&quot;&gt;\nhttp://imageshack.com/a/img703/5312/x9l1.jpg&lt;/a&gt; &lt;a href=&quot;\nhttp://imageshack.com/a/img546/5057/phmx.jpg&quot; rel=&quot;nofollow&quot; target=&quot;_NEW&quot;&gt;\nhttp://imageshack.com/a/img546/5057/phmx.jpg&lt;/a&gt;\n\n\nMEDIA INFO :\nGeneral \nFormat : MPEG-4 \nFormat profile : Base Media \nFile size : 116 MiB \nDuration : 43mn 54s \nOverall bit rate : 371 Kbps \n\nVideo \nFormat : AVC  \nFormat profile : &lt;a class=&quot;__cf_email__&quot; href=&quot;/cdn-cgi/l/email-protection&quot; data-cfemail=&quot;c189a8a6a9818df2eff1&quot;&gt;[email&amp;#160;protected]&lt;/a&gt;&lt;script cf-hash='f9e31' type=&quot;text/javascript&quot;&gt;\n/* &lt;![CDATA[ */!function(){try{var t=&quot;currentScript&quot;in document?document.currentScript:function(){for(var t=document.getElementsByTagName(&quot;script&quot;),e=t.length;e--;)if(t[e].getAttribute(&quot;cf-hash&quot;))return t[e]}();if(t&amp;&amp;t.previousSibling){var e,r,n,i,c=t.previousSibling,a=c.getAttribute(&quot;data-cfemail&quot;);if(a){for(e=&quot;&quot;,r=parseInt(a.substr(0,2),16),n=2;a.length-n;n+=2)i=parseInt(a.substr(n,2),16)^r,e+=String.fromCharCode(i);e=document.createTextNode(e),c.parentNode.replaceChild(e,c)}}}catch(u){}}();/* ]]&gt; */&lt;/script&gt; \nFormat settings, CABAC : Yes \nFormat settings, ReFrames : 4 frames \nDuration : 43mn 54s \nBit rate : 308 Kbps \nMaximum bit rate : 1 739 Kbps \nWidth : 720 pixels \nHeight : 404 pixels \nDisplay aspect ratio : 16:9 \nFrame rate : 23.976 fps \nStream size : 96.7 MiB (83%) \nTitle : The Following S02E01 HDTV x264 AAC [GWC] \nWriting library : x264 core \n\nAudio \nFormat : AAC \nFormat profile : HE-AAC / LC \nDuration : 43mn 54s \nBit rate mode : Variable \nChannel(s) : 2 channels \nSampling rate : 48.0 KHz / 24.0 KHz \nStream size : 18.8 MiB (16%) \nLanguage : English ","torrent":{"xt":"urn:btih:b60585c746369e30f3e3b78edf6fd5bef5034608","amp;dn":"The+Following+S02E01+HDTV+x264+AAC+%5BGWC%5D.mp4","amp;tr":["udp%3A%2F%2Ftracker.openbittorrent.com%3A80","udp%3A%2F%2Fopen.demonii.com%3A1337","udp%3A%2F%2Ftracker.coppersurfer.tk%3A6969","udp%3A%2F%2Fexodus.desync.com%3A6969"],"infoHash":"b60585c746369e30f3e3b78edf6fd5bef5034608","infoHashBuffer":{"type":"Buffer","data":[182,5,133,199,70,54,158,48,243,227,183,142,223,111,213,190,245,3,70,8]},"announce":[],"urlList":[]}}